<svg width="24px" height="24px" viewBox="0 0 24 24" version="1.1" xmlns="http://www.w3.org/2000/svg" xmlns:xlink="http://www.w3.org/1999/xlink">
    <g id="UI-Assets-for-Dev" stroke="none" stroke-width="1" fill="none" fill-rule="evenodd">
        <g id="BH-Blog---UI-Components---Icon-sets" transform="translate(-396.000000, -208.000000)" fill="#ffffff">
            <g id="icon" transform="translate(396.000000, 208.000000)">
                <path d="M21.6234294,3.0037452 L19.2248841,3 C16.5302007,3 14.7887779,4.73870978 14.7887779,7.42982429 L14.7887779,9.4722699 L12.3771479,9.4722699 C12.1687544,9.4722699 12,9.63668425 12,9.83948691 L12,12.7987578 C12,13.0015605 12.1689469,13.1657876 12.3771479,13.1657876 L14.7887779,13.1657876 L14.7887779,20.6329703 C14.7887779,20.8357729 14.9575324,21 15.1659258,21 L18.312417,21 C18.5208105,21 18.6895649,20.8355857 18.6895649,20.6329703 L18.6895649,13.1657876 L21.5093229,13.1657876 C21.7177163,13.1657876 21.8864708,13.0015605 21.8864708,12.7987578 L21.8876253,9.83948691 C21.8876253,9.74211167 21.8477939,9.64885615 21.7771749,9.57994445 C21.7065558,9.51103274 21.6103446,9.4722699 21.510285,9.4722699 L18.6895649,9.4722699 L18.6895649,7.74086327 C18.6895649,6.9086795 18.8933403,6.48622078 20.0072736,6.48622078 L21.6230445,6.485659 C21.8312456,6.485659 22,6.32124466 22,6.11862926 L22,3.37077494 C22,3.16834681 21.831438,3.00411972 21.6234294,3.0037452 Z" id="🎨-icon-color"></path>
            </g>
        </g>
    </g>
</svg>