<?xml version="1.0" encoding="UTF-8"?>
<svg width="56px" height="42px" viewBox="0 0 56 42" version="1.1" xmlns="http://www.w3.org/2000/svg" xmlns:xlink="http://www.w3.org/1999/xlink">
    <!-- Generator: Sketch 48.2 (47327) - http://www.bohemiancoding.com/sketch -->
    <title>Quote Mark</title>
    <desc>Created with Sketch.</desc>
    <defs></defs>
    <g stroke="none" stroke-width="1" fill="none" fill-rule="evenodd" transform="translate(-324.000000, -3453.000000)">
        <g transform="translate(-2.000000, 3229.000000)" fill="#808fad">
            <g transform="translate(326.000000, 208.000000)">
                <path d="M34.8974609,41.7236328 C34.8974609,34.3017207 36.6918766,28.4912319 40.2807617,24.2919922 C43.8696469,20.0927524 48.9111003,17.333991 55.4052734,16.015625 L55.4052734,23.6328125 C50.4736082,25.1464919 47.1533289,27.8808396 45.4443359,31.8359375 C44.4677686,33.9355574 44.0771475,35.9619043 44.2724609,37.9150391 L55.7714844,37.9150391 L55.7714844,57.1777344 L34.8974609,57.1777344 L34.8974609,41.7236328 Z M0.180664062,41.7236328 C0.180664062,34.3993774 1.92625208,28.6133025 5.41748047,24.3652344 C8.90870886,20.1171663 13.99899,17.333991 20.6884766,16.015625 L20.6884766,23.6328125 C15.7079829,25.1953203 12.3632898,27.8808403 10.6542969,31.6894531 C9.77538623,33.6914163 9.40917896,35.7665908 9.55566406,37.9150391 L21.0546875,37.9150391 L21.0546875,57.1777344 L0.180664062,57.1777344 L0.180664062,41.7236328 Z" id="Title-Copy-2"></path>
            </g>
        </g>
    </g>
</svg>
