<?xml version="1.0" encoding="UTF-8"?>
<svg width="40px" height="40px" viewBox="0 0 40 40" version="1.1" xmlns="http://www.w3.org/2000/svg" xmlns:xlink="http://www.w3.org/1999/xlink">
    <!-- Generator: sketchtool 57.1 (101010) - https://sketch.com -->
    <title>C611F461-7B40-443A-9AD3-DDF5A0180847</title>
    <desc>Created with sketchtool.</desc>
    <g id="UI-Assets-for-Dev" stroke="none" stroke-width="1" fill="none" fill-rule="evenodd">
        <g id="BH-Blog---UI-Components---Icon-sets" transform="translate(-442.000000, -535.000000)">
            <g id="icon" transform="translate(442.000000, 535.000000)">
                <circle id="Oval-8" stroke="#CFD1D3" stroke-width="0.8" cx="20" cy="20" r="19.6"></circle>
                <path d="M17.4,13.2 C18.2836556,13.2 19,13.9163444 19,14.8 L19,24.4 C19,25.2836556 18.2836556,26 17.4,26 C16.5163444,26 15.8,25.2836556 15.8,24.4 L15.8,14.8 C15.8,13.9163444 16.5163444,13.2 17.4,13.2 Z M23.8,13.2 C24.6836556,13.2 25.4,13.9163444 25.4,14.8 L25.4,24.4 C25.4,25.2836556 24.6836556,26 23.8,26 C22.9163444,26 22.2,25.2836556 22.2,24.4 L22.2,14.8 C22.2,13.9163444 22.9163444,13.2 23.8,13.2 Z" id="Combined-Shape" fill="#007EB4"></path>
            </g>
        </g>
    </g>
</svg>