<?xml version="1.0" encoding="UTF-8"?>
<svg width="24px" height="24px" viewBox="0 0 24 24" version="1.1" xmlns="http://www.w3.org/2000/svg" xmlns:xlink="http://www.w3.org/1999/xlink">
    <g id="UI-Assets-for-Dev" stroke="none" stroke-width="1" fill="none" fill-rule="evenodd">
        <path fill="#7b7f84" d="M16,7 C16.5522847,7 17,7.44771525 17,8 L17,16 C17,16.5522847 16.5522847,17 16,17 C15.4477153,17 15,16.5522847 15,16 L15,8 C15,7.44771525 15.4477153,7 16,7 Z M7,7.48235077 C7,7.11290745 7.36563071,6.87999753 7.65813528,7.06471919 L7.65813528,7.06471919 L14.7806216,11.5783527 C15.0731261,11.7630744 15.0731261,12.2288139 14.7806216,12.4216473 L14.7806216,12.4216473 L7.65813528,16.9352808 C7.36563071,17.1200025 7,16.8870925 7,16.5176492 L7,16.5176492 Z" id="Combined-Shape" transform="translate(12.000000, 12.000000) scale(-1, 1) translate(-12.000000, -12.000000) "></path>
    </g>
</svg>