<?xml version="1.0" encoding="UTF-8"?>
<svg width="24px" height="24px" viewBox="0 0 24 24" version="1.1" xmlns="http://www.w3.org/2000/svg" xmlns:xlink="http://www.w3.org/1999/xlink">
    <g id="UI-Assets-for-Dev" stroke="none" stroke-width="1" fill="none" fill-rule="evenodd">
        <path fill="#7b7f84" d="M11.5,2.70710678 C11.7761424,2.70710678 12,2.93096441 12,3.20710678 L12,3.20710678 L12,6 C16.42,6 20,9.58 20,14 C20,18.42 16.42,22 12,22 C7.58,22 4,18.42 4,14 L4,14 L6,14 C6,17.31 8.69,20 12,20 C15.31,20 18,17.31 18,14 C18,10.69 15.31,8 12,8 L12,8 L12,10.7928932 C12,10.9255015 11.9473216,11.0526784 11.8535534,11.1464466 C11.6582912,11.3417088 11.3417088,11.3417088 11.1464466,11.1464466 L11.1464466,11.1464466 L7.35355339,7.35355339 C7.15829124,7.15829124 7.15829124,6.84170876 7.35355339,6.64644661 L7.35355339,6.64644661 L11.1464466,2.85355339 C11.2402148,2.7597852 11.3673918,2.70710678 11.5,2.70710678 Z M13.9397592,12.464 C14.2337607,12.464 14.4904248,12.5199994 14.7097592,12.632 C14.9290936,12.7440006 15.1099252,12.9003323 15.2522592,13.101 C15.3945933,13.3016677 15.5007589,13.5443319 15.5707592,13.829 C15.6407596,14.1136681 15.6757592,14.4263316 15.6757592,14.767 C15.6757592,15.1123351 15.6407596,15.4296652 15.5707592,15.719 C15.5007589,16.0083348 15.3934266,16.2556656 15.2487592,16.461 C15.1040918,16.6663344 14.9232603,16.8261661 14.7062592,16.9405 C14.4892581,17.0548339 14.2314274,17.112 13.9327592,17.112 C13.6434244,17.112 13.391427,17.0548339 13.1767592,16.9405 C12.9620915,16.8261661 12.78126,16.6663344 12.6342592,16.461 C12.4872585,16.2556656 12.3775929,16.0083348 12.3052592,15.719 C12.2329255,15.4296652 12.1967592,15.1123351 12.1967592,14.767 C12.1967592,14.4263316 12.2329255,14.1136681 12.3052592,13.829 C12.3775929,13.5443319 12.4872585,13.3016677 12.6342592,13.101 C12.78126,12.9003323 12.9632581,12.7440006 13.1802592,12.632 C13.3972603,12.5199994 13.6504244,12.464 13.9397592,12.464 Z M10.527,12.59 L10.527,16.139 L11.248,16.139 L11.248,17 L8.784,17 L8.784,16.139 L9.547,16.139 L9.547,13.689 L8.812,14.081 L8.385,13.311 L9.694,12.59 L10.527,12.59 Z M13.9327592,13.388 C13.8067586,13.388 13.6982597,13.4229996 13.6072592,13.493 C13.5162588,13.5630003 13.4415928,13.6598327 13.3832592,13.7835 C13.3249256,13.9071673 13.282926,14.0529992 13.2572592,14.221 C13.2315924,14.3890008 13.2187592,14.570999 13.2187592,14.767 C13.2187592,14.9676677 13.2315924,15.1543325 13.2572592,15.327 C13.282926,15.4996675 13.3249256,15.650166 13.3832592,15.7785 C13.4415928,15.906834 13.5162588,16.008333 13.6072592,16.083 C13.6982597,16.157667 13.8090919,16.195 13.9397592,16.195 C14.0657598,16.195 14.1742588,16.157667 14.2652592,16.083 C14.3562597,16.008333 14.4309256,15.906834 14.4892592,15.7785 C14.5475928,15.650166 14.5895924,15.4996675 14.6152592,15.327 C14.640926,15.1543325 14.6537592,14.9676677 14.6537592,14.767 C14.6537592,14.570999 14.6397594,14.3890008 14.6117592,14.221 C14.5837591,14.0529992 14.5405928,13.9071673 14.4822592,13.7835 C14.4239256,13.6598327 14.3492597,13.5630003 14.2582592,13.493 C14.1672588,13.4229996 14.0587598,13.388 13.9327592,13.388 Z" id="path-1"></path>
    </g>
</svg>