<svg width="24px" height="24px" viewBox="0 0 24 24" version="1.1" xmlns="http://www.w3.org/2000/svg" xmlns:xlink="http://www.w3.org/1999/xlink">
    <g id="UI-Assets-for-Dev" stroke="none" stroke-width="1" fill="none" fill-rule="evenodd">
        <g id="BH-Blog---UI-Components---Icon-sets" transform="translate(-440.000000, -208.000000)" fill="#ffffff">
            <g id="icon" transform="translate(440.000000, 208.000000)">
                <path d="M20.9801478,6.66757199 C20.9557719,6.63852634 20.9155516,6.62866843 20.8812512,6.64451151 C20.3730133,6.8724758 19.83831,7.03636364 19.2875883,7.13318245 C19.8722622,6.68852006 20.3078947,6.07275242 20.5312826,5.36667924 C20.5420777,5.33288067 20.5309344,5.29591349 20.5035986,5.27390922 C20.4760886,5.25190494 20.4379577,5.24908839 20.407836,5.26721992 C19.7493379,5.66206463 19.0361681,5.9403747 18.2871308,6.0947567 C17.6234093,5.3983654 16.6966019,5 15.7374093,5 C13.7866391,5 12.1997666,6.60437571 12.1997666,8.57648686 C12.1997666,8.8150132 12.2225755,9.0512511 12.2678451,9.28062366 C9.56594821,9.1119829 7.039558,7.8005281 5.32175195,5.67033824 C5.30416647,5.64851 5.27752707,5.63636364 5.24966887,5.63918018 C5.22198479,5.64129259 5.19726064,5.65713567 5.18333154,5.68125236 C4.86992683,6.22484597 4.70434467,6.8467748 4.70434467,7.47944172 C4.70434467,8.57595876 5.19708652,9.60118194 6.03614058,10.2776814 C5.60416442,10.2252232 5.18228686,10.0877405 4.80184836,9.87421099 C4.77625364,9.85960015 4.74439083,9.85977619 4.71879611,9.87473909 C4.69320139,9.88952597 4.67700881,9.9169873 4.67631236,9.94691311 L4.67596413,9.99268201 C4.67596413,11.567484 5.70236456,12.9502326 7.16265641,13.4093298 C6.77803918,13.471998 6.37897052,13.4677732 5.98669228,13.3920785 C5.95778941,13.3866214 5.92749362,13.3966554 5.90764465,13.4191877 C5.8879698,13.4417201 5.88135348,13.4732302 5.89040739,13.5017478 C6.32830342,14.8836162 7.54501016,15.8526845 8.96125123,15.973444 C7.77988958,16.84851 6.38349747,17.3095436 4.90805773,17.3095436 C4.6362662,17.3095436 4.36255942,17.2931724 4.09442428,17.2613102 C4.05611926,17.2569093 4.01816246,17.2799698 4.00492982,17.317113 C3.99169718,17.3546083 4.00580039,17.3965045 4.038882,17.4178046 C5.63550489,18.4530617 7.48163276,19 9.37790539,19 C15.580707,19 19.28724,13.9059223 19.28724,8.98118949 C19.28724,8.84405885 19.2846283,8.70763234 19.2792308,8.5715579 C19.9483499,8.07672576 20.5227511,7.47099208 20.9858936,6.76984786 C21.0066131,6.73851377 21.0043496,6.69679366 20.9801478,6.66757199 Z" id="🎨-icon-color"></path>
            </g>
        </g>
    </g>
</svg>